<?xml version="1.0" encoding="UTF-8" standalone="no"?>
<svg
   xmlns:dc="http://purl.org/dc/elements/1.1/"
   xmlns:cc="http://creativecommons.org/ns#"
   xmlns:rdf="http://www.w3.org/1999/02/22-rdf-syntax-ns#"
   xmlns:svg="http://www.w3.org/2000/svg"
   xmlns="http://www.w3.org/2000/svg"
   xmlns:sodipodi="http://sodipodi.sourceforge.net/DTD/sodipodi-0.dtd"
   xmlns:inkscape="http://www.inkscape.org/namespaces/inkscape"
   sodipodi:docname="logo1.svg"
   inkscape:version="1.0 (4035a4fb49, 2020-05-01)"
   id="svg8"
   version="1.1"
   viewBox="0 0 620 200"
   height="200mm"
   width="620mm">
  <defs
     id="defs2" />
  <sodipodi:namedview
     inkscape:window-maximized="1"
     inkscape:window-y="-8"
     inkscape:window-x="-8"
     inkscape:window-height="702"
     inkscape:window-width="1366"
     inkscape:guide-bbox="true"
     showguides="true"
     showgrid="false"
     inkscape:document-rotation="0"
     inkscape:current-layer="g934"
     inkscape:document-units="mm"
     inkscape:cy="377.95276"
     inkscape:cx="645.51221"
     inkscape:zoom="0.35"
     inkscape:pageshadow="2"
     inkscape:pageopacity="0.0"
     borderopacity="1.0"
     bordercolor="#666666"
     pagecolor="#ffffff"
     id="base" />
  <metadata
     id="metadata5">
    <rdf:RDF>
      <cc:Work
         rdf:about="">
        <dc:format>image/svg+xml</dc:format>
        <dc:type
           rdf:resource="http://purl.org/dc/dcmitype/StillImage" />
        <dc:title></dc:title>
      </cc:Work>
    </rdf:RDF>
  </metadata>
  <g
     id="layer1"
     inkscape:groupmode="layer"
     inkscape:label="Layer 1">
    <g
       style="font-size:50.8px;line-height:1.25;font-family:'Josefin Sans';-inkscape-font-specification:'Josefin Sans';letter-spacing:5.29167px;stroke-width:0.264583"
       id="text835"
       aria-label="c ffee" />
    <g
       transform="matrix(3.3970865,0,0,3.3970865,-30.423835,-18.898021)"
       id="g934">
      <g
         id="g874"
         transform="matrix(0.35790736,0,0,0.35790736,-9.1300246,-30.519045)"
         style="stroke:#f28f3b;stroke-width:1.67641;stroke-miterlimit:4;stroke-dasharray:none;stroke-opacity:1" />
      <path
         d="m 31.63827,46.475881 q -1.4224,1.1176 -3.4036,1.778 -1.9812,0.6604 -3.9624,0.6604 -3.4544,0 -6.0452,-1.3716 -2.5908,-1.3716 -4.064001,-3.81 -1.422401,-2.4892 -1.422401,-5.842 0,-3.3528 1.524001,-5.842 1.574801,-2.4892 4.064001,-3.81 2.54,-1.3716 5.4356,-1.3716 2.54,0 4.5212,0.7112 2.032,0.7112 3.4544,1.9304 l -2.3368,3.048 q -0.9144,-0.7112 -2.2352,-1.27 -1.3208,-0.5588 -2.9972,-0.5588 -1.8288,0 -3.4036,0.9652 -1.524,0.9144 -2.4384,2.54 -0.8636,1.6256 -0.8636,3.6576 0,1.9304 0.9144,3.6068 0.9144,1.6256 2.54,2.5908 1.6256,0.9144 3.7084,0.9144 1.3716,0 2.4892,-0.4064 1.1684,-0.4064 2.0828,-1.1176 z"
         style="font-size:50.8px;line-height:1.25;font-family:'Josefin Sans';-inkscape-font-specification:'Josefin Sans';letter-spacing:5.29167px;fill:#f28f3b;fill-opacity:1;stroke-width:0.264583"
         id="path896" />
      <path
         d="m 59.721408,48.406281 v -16.8148 h -3.6068 v -4.2164 h 3.6068 v -8.89 c 0,-3.048 0.677333,-5.3848 2.032,-7.0104 1.388533,-1.6255999 3.420533,-2.4383999 6.096,-2.4383999 0.7112,0 1.490133,0.1016 2.3368,0.3048 0.880533,0.2032 1.642533,0.5418666 2.286,1.0159999 l -1.9812,3.4036 c -0.3048,-0.3048 -0.643467,-0.508 -1.016,-0.6096 -0.372533,-0.135467 -0.745067,-0.2032 -1.1176,-0.2032 -1.253067,0 -2.218267,0.423333 -2.8956,1.27 -0.677333,0.846667 -1.016,2.286 -1.016,4.318 v 8.8392 h 6.6548 v 4.2164 h -6.6548 v 16.8148 z m 15.494,0 v -16.8148 h -4.665133 v -4.2164 h 4.665133 v -8.89 c 0,-3.048 0.677333,-5.3848 2.032,-7.0104 1.388533,-1.6255999 3.420533,-2.4383999 6.096,-2.4383999 0.7112,0 1.490133,0.1016 2.3368,0.3048 0.880533,0.2032 1.642533,0.5418666 2.286,1.0159999 l -1.9812,3.4036 c -0.3048,-0.3048 -0.643467,-0.508 -1.016,-0.6096 -0.372533,-0.135467 -0.745067,-0.2032 -1.1176,-0.2032 -1.253067,0 -2.218267,0.423333 -2.8956,1.27 -0.677333,0.846667 -1.016,2.286 -1.016,4.318 v 8.8392 h 6.6548 v 4.2164 h -6.6548 v 16.8148 z"
         style="font-size:50.8px;line-height:1.25;font-family:'Josefin Sans';-inkscape-font-specification:'Josefin Sans';letter-spacing:0.529167px;fill:#f28f3b;fill-opacity:1;stroke-width:0.264583"
         id="path898"
         sodipodi:nodetypes="cccccscsccccssscccccccccccscsccccssscccccc" />
      <path
         d="m 91.163411,48.914281 q -3.60678,0 -6.19758,-1.4224 -2.5908,-1.4732 -4.0132,-3.9624 -1.3716,-2.54 -1.3716,-5.7912 0,-3.0988 1.5748,-5.6388 1.5748,-2.54 4.2164,-4.064 2.641598,-1.524 5.89278,-1.524 4.165576,0 6.908761,2.4384 2.743188,2.4384 3.708388,6.7056 l -17.322729,6.096 -1.1176,-2.794 14.223944,-5.1816 -1.015994,0.6604 q -0.609597,-1.6764 -2.031988,-2.8956 -1.422394,-1.27 -3.708379,-1.27 -1.930391,0 -3.454383,0.9652 -1.524,0.9144 -2.3876,2.54 -0.8636,1.6256 -0.8636,3.7084 0,2.1844 0.9144,3.8608 0.9144,1.6256 2.4892,2.5908 1.625592,0.9144 3.65758,0.9144 1.371591,0 2.641585,-0.508 1.320794,-0.508 2.438385,-1.3208 l 2.184388,3.5052 q -1.574791,1.0668 -3.555979,1.7272 -1.930388,0.6604 -3.809979,0.6604 z"
         style="font-size:50.8px;line-height:1.25;font-family:'Josefin Sans';-inkscape-font-specification:'Josefin Sans';letter-spacing:0px;fill:#f28f3b;fill-opacity:1;stroke-width:0.264583"
         id="path900" />
      <path
         d="m 108.55965,48.914281 q -3.6068,0 -6.1976,-1.4224 -2.590797,-1.4732 -4.013188,-3.9624 -1.371594,-2.54 -1.371594,-5.7912 0,-3.0988 1.574791,-5.6388 1.574791,-2.54 4.216391,-4.064 2.6416,-1.524 5.8928,-1.524 4.1656,0 6.9088,2.4384 2.7432,2.4384 3.7084,6.7056 l -17.3228,6.096 -1.1176,-2.794 14.224,-5.1816 -1.016,0.6604 q -0.6096,-1.6764 -2.032,-2.8956 -1.4224,-1.27 -3.7084,-1.27 -1.9304,0 -3.4544,0.9652 -1.524,0.9144 -2.3876,2.54 -0.8636,1.6256 -0.8636,3.7084 0,2.1844 0.9144,3.8608 0.9144,1.6256 2.4892,2.5908 1.6256,0.9144 3.6576,0.9144 1.3716,0 2.6416,-0.508 1.3208,-0.508 2.4384,-1.3208 l 2.1844,3.5052 q -1.5748,1.0668 -3.556,1.7272 -1.9304,0.6604 -3.81,0.6604 z"
         style="font-size:50.8px;line-height:1.25;font-family:'Josefin Sans';-inkscape-font-specification:'Josefin Sans';letter-spacing:0px;fill:#f28f3b;fill-opacity:1;stroke-width:0.264583"
         id="path902" />
      <path
         id="path1144"
         d="M 43.15625 24.105469 C 40.98669 24.105469 38.931696 24.604744 37.103516 25.496094 L 37.367188 26.035156 C 39.115719 25.18264 41.078852 24.705078 43.15625 24.705078 C 49.502499 24.705078 54.799609 29.169467 56.085938 35.126953 L 56.671875 35 C 55.326842 28.770632 49.784043 24.105469 43.15625 24.105469 z M 32.833984 28.732422 C 30.654022 31.176428 29.328125 34.40214 29.328125 37.933594 C 29.328125 45.56706 35.522784 51.761719 43.15625 51.761719 C 50.789716 51.761719 56.984375 45.567059 56.984375 37.933594 L 56.384766 37.933594 C 56.384766 45.242796 50.465452 51.160156 43.15625 51.160156 C 35.847048 51.160156 29.927734 45.242796 29.927734 37.933594 C 29.927734 34.552154 31.195337 31.469425 33.28125 29.130859 L 32.833984 28.732422 z "
         style="color:#000000;font-style:normal;font-variant:normal;font-weight:normal;font-stretch:normal;font-size:medium;line-height:normal;font-family:sans-serif;font-variant-ligatures:normal;font-variant-position:normal;font-variant-caps:normal;font-variant-numeric:normal;font-variant-alternates:normal;font-variant-east-asian:normal;font-feature-settings:normal;font-variation-settings:normal;text-indent:0;text-align:start;text-decoration:none;text-decoration-line:none;text-decoration-style:solid;text-decoration-color:#000000;letter-spacing:normal;word-spacing:normal;text-transform:none;writing-mode:lr-tb;direction:ltr;text-orientation:mixed;dominant-baseline:auto;baseline-shift:baseline;text-anchor:start;white-space:normal;shape-padding:0;shape-margin:0;inline-size:0;clip-rule:nonzero;display:inline;overflow:visible;visibility:visible;isolation:auto;mix-blend-mode:normal;color-interpolation:sRGB;color-interpolation-filters:linearRGB;solid-color:#000000;solid-opacity:1;vector-effect:none;fill:#f28f3b;fill-opacity:1;fill-rule:evenodd;stroke:none;stroke-width:0.599999;stroke-linecap:butt;stroke-linejoin:miter;stroke-miterlimit:4;stroke-dasharray:none;stroke-dashoffset:0;stroke-opacity:1;color-rendering:auto;image-rendering:auto;shape-rendering:auto;text-rendering:auto;enable-background:accumulate;stop-color:#000000;stop-opacity:1;opacity:1" />
      <path
         id="path1162"
         d="M 43.15625 28.957031 C 38.202795 28.957033 34.179687 32.980139 34.179688 37.933594 C 34.179687 42.887049 38.202795 46.908202 43.15625 46.908203 C 48.109706 46.908203 52.13086 42.88705 52.130859 37.933594 C 52.13086 32.980138 48.109706 28.957031 43.15625 28.957031 z M 43.15625 29.556641 C 47.785442 29.55664 51.531251 33.304401 51.53125 37.933594 C 51.531251 42.562786 47.785442 46.308594 43.15625 46.308594 C 38.527059 46.308592 34.781249 42.562785 34.78125 37.933594 C 34.781249 33.304402 38.527059 29.556642 43.15625 29.556641 z "
         style="color:#000000;font-style:normal;font-variant:normal;font-weight:normal;font-stretch:normal;font-size:medium;line-height:normal;font-family:sans-serif;font-variant-ligatures:normal;font-variant-position:normal;font-variant-caps:normal;font-variant-numeric:normal;font-variant-alternates:normal;font-variant-east-asian:normal;font-feature-settings:normal;font-variation-settings:normal;text-indent:0;text-align:start;text-decoration:none;text-decoration-line:none;text-decoration-style:solid;text-decoration-color:#000000;letter-spacing:normal;word-spacing:normal;text-transform:none;writing-mode:lr-tb;direction:ltr;text-orientation:mixed;dominant-baseline:auto;baseline-shift:baseline;text-anchor:start;white-space:normal;shape-padding:0;shape-margin:0;inline-size:0;clip-rule:nonzero;display:inline;overflow:visible;visibility:visible;isolation:auto;mix-blend-mode:normal;color-interpolation:sRGB;color-interpolation-filters:linearRGB;solid-color:#000000;solid-opacity:1;vector-effect:none;fill:#f28f3b;fill-opacity:1;fill-rule:evenodd;stroke:none;stroke-width:0.599999;stroke-linecap:butt;stroke-linejoin:miter;stroke-miterlimit:4;stroke-dasharray:none;stroke-dashoffset:0;stroke-opacity:1;color-rendering:auto;image-rendering:auto;shape-rendering:auto;text-rendering:auto;enable-background:accumulate;stop-color:#000000;stop-opacity:1;opacity:1" />
      <path
         id="path1152"
         d="M 43.15625 29.900391 C 38.723908 29.900392 35.123046 33.501252 35.123047 37.933594 C 35.123046 42.365935 38.723908 45.964842 43.15625 45.964844 C 47.588593 45.964844 51.1875 42.365937 51.1875 37.933594 C 51.1875 33.501251 47.588593 29.90039 43.15625 29.900391 z M 43.15625 30.5 C 47.264329 30.5 50.587891 33.825514 50.587891 37.933594 C 50.587891 42.041673 47.264329 45.365235 43.15625 45.365234 C 39.048172 45.365233 35.724609 42.041672 35.724609 37.933594 C 35.724609 33.825515 39.048172 30.500001 43.15625 30.5 z "
         style="color:#000000;font-style:normal;font-variant:normal;font-weight:normal;font-stretch:normal;font-size:medium;line-height:normal;font-family:sans-serif;font-variant-ligatures:normal;font-variant-position:normal;font-variant-caps:normal;font-variant-numeric:normal;font-variant-alternates:normal;font-variant-east-asian:normal;font-feature-settings:normal;font-variation-settings:normal;text-indent:0;text-align:start;text-decoration:none;text-decoration-line:none;text-decoration-style:solid;text-decoration-color:#000000;letter-spacing:normal;word-spacing:normal;text-transform:none;writing-mode:lr-tb;direction:ltr;text-orientation:mixed;dominant-baseline:auto;baseline-shift:baseline;text-anchor:start;white-space:normal;shape-padding:0;shape-margin:0;inline-size:0;clip-rule:nonzero;display:inline;overflow:visible;visibility:visible;isolation:auto;mix-blend-mode:normal;color-interpolation:sRGB;color-interpolation-filters:linearRGB;solid-color:#000000;solid-opacity:1;vector-effect:none;fill:#f28f3b;fill-opacity:1;fill-rule:evenodd;stroke:none;stroke-width:0.599999;stroke-linecap:butt;stroke-linejoin:miter;stroke-miterlimit:4;stroke-dasharray:none;stroke-dashoffset:0;stroke-opacity:1;color-rendering:auto;image-rendering:auto;shape-rendering:auto;text-rendering:auto;enable-background:accumulate;stop-color:#000000;stop-opacity:1;opacity:1" />
      <path
         id="path1166"
         d="M 51.091797 32.826172 L 50.816406 33.392578 C 50.775176 33.477615 50.797207 33.576765 50.822266 33.650391 L 50.814453 33.650391 L 50.822266 33.666016 C 50.825553 33.674391 50.818557 33.690138 50.822266 33.697266 C 50.832391 33.716728 50.843075 33.719793 50.853516 33.734375 L 51.484375 35.085938 L 51.492188 35.082031 C 51.49673 35.087897 51.49844 35.111536 51.501953 35.117188 L 52.019531 34.835938 C 52.031204 34.846337 52.04945 34.84467 52.042969 34.947266 C 52.041902 34.96415 52.034973 35.00459 52.035156 35.003906 C 52.035339 35.003222 52.00945 35.068938 52.009766 35.068359 C 52.010396 35.067201 51.910957 35.174577 51.912109 35.173828 C 51.912685 35.173454 51.875796 35.194781 51.859375 35.201172 C 51.842954 35.207563 51.82763 35.21206 51.814453 35.214844 C 51.788099 35.220411 51.768815 35.220927 51.753906 35.220703 C 51.634636 35.218909 51.693958 35.209213 51.732422 35.226562 C 51.80935 35.261261 51.965971 35.342954 52.158203 35.433594 C 53.287131 35.965828 56.14336 37.469976 58.582031 37.978516 C 58.841338 38.032592 59.050053 37.87418 59.166016 37.734375 C 59.281978 37.59457 59.353848 37.44157 59.402344 37.3125 C 59.453265 37.176975 59.502522 37.004606 59.507812 36.814453 C 59.510458 36.719377 59.503435 36.618446 59.462891 36.511719 C 59.422346 36.404992 59.337133 36.292146 59.216797 36.226562 C 58.053334 35.592481 56.020955 34.94155 54.279297 34.392578 C 53.408468 34.118092 52.611249 33.871777 52.052734 33.675781 C 51.773477 33.577784 51.55318 33.490528 51.423828 33.427734 C 51.382716 33.407776 51.373271 33.401659 51.355469 33.390625 L 51.091797 32.826172 z M 51.728516 34.191406 C 51.777633 34.209183 51.802538 34.223613 51.855469 34.242188 C 52.433074 34.444882 53.228361 34.690841 54.097656 34.964844 C 55.827067 35.509955 57.846702 36.170483 58.904297 36.742188 C 58.906695 36.753374 58.909092 36.766877 58.908203 36.798828 C 58.905872 36.882627 58.875176 37.012726 58.841797 37.101562 C 58.81099 37.183554 58.753255 37.293481 58.705078 37.351562 C 58.656902 37.409644 58.666494 37.382578 58.705078 37.390625 C 56.408278 36.91167 53.581097 35.440825 52.414062 34.890625 C 52.234029 34.805738 52.089941 34.729946 51.978516 34.679688 C 51.971943 34.676723 51.958662 34.674993 51.953125 34.671875 L 51.728516 34.191406 z "
         style="color:#000000;font-style:normal;font-variant:normal;font-weight:normal;font-stretch:normal;font-size:medium;line-height:normal;font-family:sans-serif;font-variant-ligatures:normal;font-variant-position:normal;font-variant-caps:normal;font-variant-numeric:normal;font-variant-alternates:normal;font-variant-east-asian:normal;font-feature-settings:normal;font-variation-settings:normal;text-indent:0;text-align:start;text-decoration:none;text-decoration-line:none;text-decoration-style:solid;text-decoration-color:#000000;letter-spacing:normal;word-spacing:normal;text-transform:none;writing-mode:lr-tb;direction:ltr;text-orientation:mixed;dominant-baseline:auto;baseline-shift:baseline;text-anchor:start;white-space:normal;shape-padding:0;shape-margin:0;inline-size:0;clip-rule:nonzero;display:inline;overflow:visible;visibility:visible;isolation:auto;mix-blend-mode:normal;color-interpolation:sRGB;color-interpolation-filters:linearRGB;solid-color:#000000;solid-opacity:1;vector-effect:none;fill:#f28f3b;fill-opacity:1;fill-rule:nonzero;stroke:none;stroke-width:0.599999;stroke-linecap:butt;stroke-linejoin:miter;stroke-miterlimit:4;stroke-dasharray:none;stroke-dashoffset:0;stroke-opacity:1;color-rendering:auto;image-rendering:auto;shape-rendering:auto;text-rendering:auto;enable-background:accumulate;stop-color:#000000;stop-opacity:1;opacity:1" />
      <path
         id="path1148"
         d="M 36.884766 25.681641 C 36.002668 25.535705 35.134484 25.595531 34.341797 25.875 L 34.333984 25.878906 L 34.324219 25.882812 C 33.684991 26.155407 33.249254 26.526436 33.0625 27.005859 L 33.056641 27.019531 L 33.052734 27.033203 C 32.838171 27.790124 32.872339 28.338107 33.058594 28.759766 C 33.249194 29.191321 33.563719 29.459104 33.814453 29.732422 C 34.878259 30.892047 35.979845 31.091884 36.902344 31.609375 L 37.064453 31.699219 L 37.216797 31.595703 C 38.570007 30.676825 39.872288 29.772839 41.453125 29.490234 L 41.400391 28.894531 L 41.681641 29.089844 C 41.539491 28.707369 41.349977 28.281511 40.941406 27.832031 C 40.532836 27.382552 39.914639 26.910757 38.912109 26.373047 L 38.910156 26.371094 L 38.908203 26.369141 C 38.613753 26.216584 38.317372 26.087982 38.019531 25.980469 C 37.641245 25.843914 37.261425 25.743954 36.884766 25.681641 z M 36.787109 26.273438 C 37.125894 26.329485 37.470754 26.420147 37.816406 26.544922 C 38.088556 26.643161 38.360903 26.761466 38.632812 26.902344 C 39.593443 27.418092 40.152503 27.854233 40.498047 28.234375 C 40.75929 28.521775 40.853933 28.776682 40.966797 29.039062 C 39.475387 29.403974 38.222898 30.192797 37.027344 31.005859 C 36.060317 30.500948 35.149861 30.302651 34.255859 29.328125 C 33.977205 29.024372 33.733426 28.802875 33.607422 28.517578 C 33.485937 28.24255 33.448902 27.870517 33.630859 27.214844 C 33.742332 26.937516 34.017607 26.672303 34.552734 26.441406 C 35.238988 26.201653 35.997818 26.142856 36.787109 26.273438 z "
         style="color:#000000;font-style:normal;font-variant:normal;font-weight:normal;font-stretch:normal;font-size:medium;line-height:normal;font-family:sans-serif;font-variant-ligatures:normal;font-variant-position:normal;font-variant-caps:normal;font-variant-numeric:normal;font-variant-alternates:normal;font-variant-east-asian:normal;font-feature-settings:normal;font-variation-settings:normal;text-indent:0;text-align:start;text-decoration:none;text-decoration-line:none;text-decoration-style:solid;text-decoration-color:#000000;letter-spacing:normal;word-spacing:normal;text-transform:none;writing-mode:lr-tb;direction:ltr;text-orientation:mixed;dominant-baseline:auto;baseline-shift:baseline;text-anchor:start;white-space:normal;shape-padding:0;shape-margin:0;inline-size:0;clip-rule:nonzero;display:inline;overflow:visible;visibility:visible;isolation:auto;mix-blend-mode:normal;color-interpolation:sRGB;color-interpolation-filters:linearRGB;solid-color:#000000;solid-opacity:1;vector-effect:none;fill:#f28f3b;fill-opacity:1;fill-rule:nonzero;stroke:none;stroke-width:0.599999;stroke-linecap:butt;stroke-linejoin:miter;stroke-miterlimit:4;stroke-dasharray:none;stroke-dashoffset:0;stroke-opacity:1;color-rendering:auto;image-rendering:auto;shape-rendering:auto;text-rendering:auto;enable-background:accumulate;stop-color:#000000;stop-opacity:1;opacity:1" />
      <g
         style="opacity:1"
         id="g1154">
        <path
           id="path1156"
           d="m 50.348591,37.932867 c 10e-7,3.972432 -3.220292,7.192725 -7.192724,7.192725 -3.972431,-10e-7 -7.192722,-3.220294 -7.192721,-7.192725 0,-3.972431 3.22029,-7.192723 7.192721,-7.192724 3.972432,0 7.192724,3.220292 7.192724,7.192724"
           style="color:#000000;font-style:normal;font-variant:normal;font-weight:normal;font-stretch:normal;font-size:medium;line-height:normal;font-family:sans-serif;font-variant-ligatures:normal;font-variant-position:normal;font-variant-caps:normal;font-variant-numeric:normal;font-variant-alternates:normal;font-variant-east-asian:normal;font-feature-settings:normal;font-variation-settings:normal;text-indent:0;text-align:start;text-decoration:none;text-decoration-line:none;text-decoration-style:solid;text-decoration-color:#000000;letter-spacing:normal;word-spacing:normal;text-transform:none;writing-mode:lr-tb;direction:ltr;text-orientation:mixed;dominant-baseline:auto;baseline-shift:baseline;text-anchor:start;white-space:normal;shape-padding:0;shape-margin:0;inline-size:0;clip-rule:nonzero;display:inline;overflow:visible;visibility:visible;isolation:auto;mix-blend-mode:normal;color-interpolation:sRGB;color-interpolation-filters:linearRGB;solid-color:#000000;solid-opacity:1;vector-effect:none;fill:#f28f3b;fill-opacity:1;fill-rule:evenodd;stroke:none;stroke-width:0.599999;stroke-linecap:butt;stroke-linejoin:miter;stroke-miterlimit:4;stroke-dasharray:none;stroke-dashoffset:0;stroke-opacity:1.0;color-rendering:auto;image-rendering:auto;shape-rendering:auto;text-rendering:auto;enable-background:accumulate;stop-color:#000000;stop-opacity:1;" />
        <path
           id="path1158"
           d="M 43.15625 30.439453 C 39.021688 30.439455 35.664062 33.799031 35.664062 37.933594 C 35.664062 42.068157 39.021687 45.42578 43.15625 45.425781 C 47.290814 45.425781 50.648438 42.068158 50.648438 37.933594 C 50.648438 33.79903 47.290814 30.439453 43.15625 30.439453 z M 43.15625 31.041016 C 46.96655 31.041015 50.048828 34.123294 50.048828 37.933594 C 50.048829 41.743894 46.96655 44.826172 43.15625 44.826172 C 39.345951 44.82617 36.263671 41.743893 36.263672 37.933594 C 36.263672 34.123295 39.345951 31.041017 43.15625 31.041016 z "
           style="color:#000000;font-style:normal;font-variant:normal;font-weight:normal;font-stretch:normal;font-size:medium;line-height:normal;font-family:sans-serif;font-variant-ligatures:normal;font-variant-position:normal;font-variant-caps:normal;font-variant-numeric:normal;font-variant-alternates:normal;font-variant-east-asian:normal;font-feature-settings:normal;font-variation-settings:normal;text-indent:0;text-align:start;text-decoration:none;text-decoration-line:none;text-decoration-style:solid;text-decoration-color:#000000;letter-spacing:normal;word-spacing:normal;text-transform:none;writing-mode:lr-tb;direction:ltr;text-orientation:mixed;dominant-baseline:auto;baseline-shift:baseline;text-anchor:start;white-space:normal;shape-padding:0;shape-margin:0;inline-size:0;clip-rule:nonzero;display:inline;overflow:visible;visibility:visible;isolation:auto;mix-blend-mode:normal;color-interpolation:sRGB;color-interpolation-filters:linearRGB;solid-color:#000000;solid-opacity:1;vector-effect:none;fill:#f28f3b;fill-opacity:1;fill-rule:evenodd;stroke:none;stroke-width:0.599999;stroke-linecap:butt;stroke-linejoin:miter;stroke-miterlimit:4;stroke-dasharray:none;stroke-dashoffset:0;stroke-opacity:1.0;color-rendering:auto;image-rendering:auto;shape-rendering:auto;text-rendering:auto;enable-background:accumulate;stop-color:#000000;stop-opacity:1;" />
      </g>
      <g
         aria-label="girl"
         id="text882"
         style="font-size:50.8px;line-height:1.25;font-family:'Dancing Script';-inkscape-font-specification:'Dancing Script';stroke-width:0.264583">
        <path
           d="m 122.37381,60.963715 q -1.1176,0 -2.032,-0.7112 -0.9144,-0.6604 -0.9144,-2.2352 0,-1.524 0.9652,-2.8448 0.9144,-1.27 2.3876,-2.3876 1.4732,-1.066799 3.2004,-1.981199 1.778,-0.9144 3.3528,-1.7272 0.7112,-1.778 1.3208,-3.81 0.6604,-2.0828 1.27,-4.572 -1.9304,2.794 -4.064,4.6736 -2.0828,1.8288 -4.2164,1.8288 -1.8288,0 -2.8448,-1.3716 -0.9652,-1.3716 -0.9652,-3.556 0,-2.6416 1.27,-5.0292 1.3208,-2.3876 3.4036,-4.2164 2.0828,-1.8288 4.4196,-2.8448 2.3368,-1.0668 4.3688,-1.0668 1.4732,0 2.0828,0.508 0.6604,0.4572 0.6604,1.1176 0,0.4572 -0.254,0.7112 -0.254,0.254 -0.3556,0.3048 -0.254,-0.4064 -0.762,-0.5588 -0.508,-0.2032 -1.27,-0.2032 -1.9812,0 -3.8608,1.1684 -1.8288,1.1684 -3.2512,2.9972 -1.4224,1.8288 -2.286,3.81 -0.8128,1.9304 -0.8128,3.556 0,1.2192 0.4572,1.8796 0.508,0.6096 1.3208,0.6096 1.4732,0 3.5052,-1.9304 2.0828,-1.9812 4.0132,-4.7752 0.1524,-0.7112 0.254,-1.27 0.1524,-0.5588 0.3556,-1.4224 0.1524,-0.7112 0.7112,-1.6256 0.6096,-0.9652 1.8796,-0.9652 0.254,0 0.508,0.0508 0.254,0 0.5588,0.1016 0,0.8128 -0.508,2.9972 -0.4572,2.1336 -1.3716,5.0292 -0.8636,2.8448 -2.032,5.8928 1.6764,-0.8128 3.2512,-2.0828 1.6256,-1.27 2.9464,-2.8956 1.3208,-1.6764 2.0828,-3.6068 l 0.6604,0.508 q -0.762,2.286 -2.4384,4.1656 -1.6764,1.8796 -3.6068,3.2512 -1.8796,1.3716 -3.4544,2.1336 -1.4224,3.403599 -2.9972,6.197599 -1.5748,2.8448 -3.302,4.5212 -1.6764,1.6764 -3.6068,1.6764 z m -0.1524,-1.6256 q 1.016,0 2.7432,-2.032 1.778,-1.9812 3.81,-6.857999 -2.032,1.016 -3.81,2.082799 -1.7272,1.1176 -2.8448,2.3368 -1.1176,1.2192 -1.1176,2.6924 0,0.8128 0.3556,1.27 0.3556,0.508 0.8636,0.508 z"
           style="font-size:50.8px;fill:#588b8b;fill-opacity:1;stroke-width:0.264583"
           id="path905" />
        <path
           d="m 143.84554,48.060516 q -1.9812,0 -2.9464,-1.27 -0.9652,-1.2192 -0.9652,-2.9972 0,-1.1684 0.4064,-2.9464 0.4572,-1.778 1.1684,-3.7084 0.7112,-1.9812 1.6256,-3.7084 0.9652,-1.7272 2.032,-2.794 1.0668,-1.1176 2.0828,-1.1176 0.4572,0 0.762,0.3048 0.3556,0.254 0.3556,0.8128 0,0.6096 -0.8128,1.9812 -0.762,1.3716 -1.8288,3.1496 -1.0668,1.778 -1.8796,3.7592 -0.762,1.9304 -0.762,3.7084 0,1.8288 0.6096,2.4384 0.6096,0.6096 1.8796,0.6096 1.7272,0 3.6576,-1.7272 1.9812,-1.7272 4.1656,-6.0452 l 0.4572,0.508 q -1.4732,4.3688 -4.2672,6.7056 -2.7432,2.3368 -5.7404,2.3368 z m 6.096,-23.2664 q -0.8128,0 -1.4732,-0.4064 -0.6096,-0.4064 -0.6096,-1.27 0,-1.0668 1.2192,-1.8288 1.27,-0.8128 2.4892,-0.8128 0.762,0 1.2192,0.3556 0.4572,0.3556 0.4572,1.2192 0,0.9652 -1.0668,1.8796 -1.016,0.8636 -2.2352,0.8636 z"
           style="font-size:50.8px;fill:#588b8b;fill-opacity:1;stroke-width:0.264583"
           id="path907" />
        <path
           d="m 161.18025,48.060516 q -1.7272,0 -2.7432,-0.9144 -0.9652,-0.9144 -0.9652,-2.3876 0,-1.524 0.7112,-3.2004 0.7112,-1.6764 1.3716,-3.302 0.7112,-1.6764 0.7112,-2.9972 0,-1.6256 -0.9652,-2.3876 -0.9144,-0.8128 -1.8796,-1.4732 -1.1684,2.9972 -2.4384,5.6896 -1.27,2.6924 -2.0828,4.064 l -0.4572,-0.8636 q 0.7112,-1.3208 1.8288,-3.8608 1.1684,-2.54 2.286,-5.7912 -0.508,-0.508 -0.508,-1.2192 0,-1.524 0.8636,-2.4892 0.8636,-0.9652 1.27,-0.9652 0.5588,0 0.6096,0.508 0.1016,0.4572 0.1016,0.7112 0,0.254 -0.3048,1.016 -0.254,0.7112 -0.254,0.8636 0,0.7112 0.762,1.3208 0.8128,0.5588 1.8288,1.3208 1.016,0.7112 1.778,1.778 0.8128,1.016 0.8128,2.6416 0,1.524 -0.6604,3.0988 -0.6096,1.5748 -1.27,2.9972 -0.6096,1.4224 -0.6096,2.4892 0,0.9144 0.4572,1.2192 0.4572,0.3048 1.0668,0.3048 1.2192,0 2.4892,-0.762 1.3208,-0.762 2.54,-1.9304 1.2192,-1.1684 2.1844,-2.4384 0.9652,-1.3208 1.4224,-2.4384 l 0.6604,0.508 q -0.9652,2.1336 -2.6416,4.2164 -1.6764,2.032 -3.7592,3.3528 -2.032,1.3208 -4.2164,1.3208 z"
           style="font-size:50.8px;fill:#588b8b;fill-opacity:1;stroke-width:0.264583"
           id="path909" />
        <path
           d="m 174.26919,48.263716 q -2.1844,0 -3.1496,-1.524 -0.9144,-1.4732 -0.9144,-3.7084 0,-2.4384 0.9144,-5.7912 0.9144,-3.3528 2.3876,-7.0612 1.524,-3.7084 3.302,-7.2136 1.778,-3.556 3.556,-6.4516 1.778,-2.8956 3.2512,-4.6228 1.524,-1.7272 2.3876,-1.7272 0.5588,0 0.9144,0.6604 0.3556,0.6096 0.5588,1.524 0.2032,0.8636 0.2032,1.5748 0,1.3716 -0.7112,3.6068 -0.6604,2.1844 -1.9304,4.9276 -1.2192,2.6924 -2.9464,5.4864 -1.6764,2.7432 -3.7084,5.2832 -1.9812,2.54 -4.2164,4.3688 -0.3048,1.3716 -0.508,2.6924 -0.1524,1.27 -0.1524,2.4384 0,1.9812 0.5588,2.9464 0.5588,0.9652 1.6764,0.9652 1.3716,0 2.6924,-1.2192 1.3716,-1.2192 2.54,-3.048 1.2192,-1.8796 2.0828,-3.8608 l 0.762,0.4064 q -2.032,4.318 -4.4196,6.858 -2.3876,2.4892 -5.1308,2.4892 z m 0.3556,-12.3952 q 1.778,-1.778 3.4544,-4.064 1.6764,-2.3368 3.0988,-4.826 1.4732,-2.4892 2.5908,-4.826 1.1176,-2.3368 1.7272,-4.1656 0.6096,-1.8796 0.6096,-2.8956 0,-0.508 -0.1524,-0.6604 -0.1016,-0.1524 -0.2032,-0.1524 -0.4064,0 -1.4224,1.3208 -0.9652,1.27 -2.286,3.4544 -1.3208,2.1844 -2.6924,4.9784 -1.3716,2.794 -2.6416,5.842 -1.2192,3.048 -2.0828,5.9944 z"
           style="font-size:50.8px;fill:#588b8b;fill-opacity:1;stroke-width:0.264583"
           id="path911" />
      </g>
    </g>
  </g>
</svg>
